<svg xmlns="http://www.w3.org/2000/svg" x="0px" y="0px"
    width="64" height="64"
    viewBox="0 0 172 172"
    style=" fill:#000000;"
>
    <g 
        fill="none" 
        fill-rule="nonzero" 
        stroke="none" 
        stroke-width="1" 
        stroke-linecap="butt" 
        stroke-linejoin="miter" 
        stroke-miterlimit="10" 
        stroke-dasharray="" 
        stroke-dashoffset="0" 
        font-family="none" 
        font-weight="none" 
        font-size="none" 
        text-anchor="none" 
        style="mix-blend-mode: normal"
    >
        <path d="M0,172v-172h172v172z" 
            fill="none"
        >
        </path>
        <g fill="#ffffff">
            <path d="M86.1075,20.64c-0.92719,-0.02687 -1.8275,0.3225 -2.49937,0.9675c-0.67188,0.645 -1.04813,1.54531 -1.04813,2.4725v25.89406c-0.05375,0.36281 -0.05375,0.73906 0,1.10187v30.05969l-30.96,30.96l-14.76781,-14.76781c-0.65844,-0.65844 -1.55875,-1.02125 -2.48594,-1.00781c-0.90031,0.01344 -1.74687,0.37625 -2.37844,1.00781l-30.96,30.96c-0.90031,0.86 -1.26313,2.15 -0.94063,3.34594c0.30906,1.20938 1.24969,2.15 2.45906,2.45906c1.19594,0.3225 2.48594,-0.04031 3.34594,-0.94063l28.52781,-28.52781l12.33563,12.33562l-45.72781,45.72781c-0.90031,0.86 -1.26313,2.15 -0.94063,3.34594c0.30906,1.20938 1.24969,2.15 2.45906,2.45906c1.19594,0.3225 2.48594,-0.04031 3.34594,-0.94063l37.42344,-37.42344l-0.12094,0.22844l15.66813,7.83406l13.39719,-10.05125l13.76,10.32l13.76,-10.32l13.39719,10.05125l15.66813,-7.83406l-0.12094,-0.22844l37.42344,37.42344c0.86,0.90031 2.15,1.26313 3.34594,0.94063c1.20938,-0.30906 2.15,-1.24969 2.45906,-2.45906c0.3225,-1.19594 -0.04031,-2.48594 -0.94063,-3.34594l-45.72781,-45.72781l12.33562,-12.33562l28.52781,28.52781c0.86,0.90031 2.15,1.26313 3.34594,0.94063c1.20938,-0.30906 2.15,-1.24969 2.45906,-2.45906c0.3225,-1.19594 -0.04031,-2.48594 -0.94063,-3.34594l-30.96,-30.96c-0.65844,-0.65844 -1.55875,-1.02125 -2.48594,-1.00781c-0.90031,0.01344 -1.74687,0.37625 -2.37844,1.00781l-14.76781,14.76781l-30.96,-30.96v-28.28594l28.78313,-11.34125c1.29,-0.51062 2.13656,-1.73344 2.17687,-3.10406c0.04031,-1.38406 -0.7525,-2.64719 -2.00219,-3.225l-30.96,-14.21688c-0.41656,-0.20156 -0.87344,-0.30906 -1.33031,-0.3225zM89.44,29.455l18.75875,8.6l-18.75875,7.40406zM86,87.42438l31.48406,31.47062c0.25531,0.40313 0.59125,0.73906 0.98094,1.00781l5.30781,5.28094l-9.89,4.945l-14.12281,-10.58875l-13.76,10.32l-13.76,-10.32l-14.12281,10.58875l-9.89,-4.945l5.30781,-5.30781c0.40313,-0.25531 0.73906,-0.59125 1.00781,-0.98094z">
            </path>
        </g>
    </g>
</svg>